# xmcd
#
# Track frame offsets: 
#        183
#        15733
#        27110
#        43480
#        62520
#        80553
#        96368
#        110375
#        124770
#        136063
#        152193
#        163803
#        181065
#        196538
#
# Disc length: 2862 seconds
#
# Revision: 0
# Processed by: cddbd v1.5.1PL0 Copyright (c) Steve Scherf et al.
# Submitted via: ExactAudioCopy v0.95a5
#
DISCID=b10b2c0e
DTITLE=American Made - Forty Miles From Lonely
DYEAR=1993
DGENRE=Country
TTITLE0=Forty Miles From Lonely
TTITLE1=I Want You Back
TTITLE2=Blinded By Love
TTITLE3=One-Track Mind
TTITLE4=The Other Man
TTITLE5=I Can Do It With My Eyes Closed
TTITLE6=I Just Wanna Meet Merle Haggard
TTITLE7=The Love In Mama's Eyes
TTITLE8=Head Over Heels
TTITLE9=Oh Colorado
TTITLE10=Read 'em And Weep
TTITLE11=Drownin' In The Bayou
TTITLE12=Say Goodbye To Daddy
TTITLE13=Lil' Bucky's Totally Excellent Adventure
EXTD=
EXTT0=
EXTT1=
EXTT2=
EXTT3=
EXTT4=
EXTT5=
EXTT6=
EXTT7=
EXTT8=
EXTT9=
EXTT10=
EXTT11=
EXTT12=
EXTT13=
PLAYORDER=
